/* XPM */
static char *kblocks[] = {
/* columns rows colors chars-per-pixel */
"32 32 220 2 ",
"   c #5E0505",
".  c #640404",
"X  c #6B0505",
"o  c #6B0A0A",
"O  c #740B0B",
"+  c #7A0C0C",
"@  c #6D1212",
"#  c #731514",
"$  c #7D1212",
"%  c #741C1C",
"&  c #7F1818",
"*  c #772020",
"=  c #7B2625",
"-  c #015305",
";  c #015A01",
":  c #05530C",
">  c #035E0F",
",  c #055E12",
"<  c #085F17",
"1  c #095F18",
"2  c #036B05",
"3  c #03630B",
"4  c #026808",
"5  c #027604",
"6  c #027903",
"7  c #056318",
"8  c #1B691E",
"9  c #1B722A",
"0  c #217630",
"q  c #267A33",
"w  c #2A7E36",
"e  c #9D0E0E",
"r  c #821414",
"t  c #881414",
"y  c #841919",
"u  c #8A1A1A",
"i  c #911313",
"p  c #9E1010",
"a  c #9B1E1E",
"s  c #AE0707",
"d  c #A60C0C",
"f  c #AA0909",
"g  c #B20505",
"h  c #B60B0B",
"j  c #A41313",
"k  c #AD1212",
"l  c #A41A1A",
"z  c #A81C1C",
"x  c #B41515",
"c  c #B41B1B",
"v  c #B91A1A",
"b  c #8C2323",
"n  c #832F2E",
"m  c #8F2D2D",
"M  c #9C2020",
"N  c #942C2C",
"B  c #843131",
"V  c #923434",
"C  c #9A3333",
"Z  c #953B3B",
"A  c #9E3D3D",
"S  c #AC2323",
"D  c #A12929",
"F  c #AB2D2C",
"G  c #B52323",
"H  c #BA2121",
"J  c #B42A2A",
"K  c #BA2B2B",
"L  c #A33636",
"P  c #A93131",
"I  c #A43C3C",
"U  c #AE3A3A",
"Y  c #B53232",
"T  c #B93433",
"R  c #B43B3B",
"E  c #BB3C3C",
"W  c #C12222",
"Q  c #C12A2A",
"!  c #C82B2B",
"~  c #C53535",
"^  c #CD3434",
"/  c #D53737",
"(  c #D23B3B",
")  c #DB3E3E",
"_  c #A44040",
"`  c #B54342",
"'  c #BC4444",
"]  c #B74B4B",
"[  c #BA4949",
"{  c #BC5251",
"}  c #BE5A59",
"|  c #C24444",
" . c #C94343",
".. c #C44C4C",
"X. c #CB4B4B",
"o. c #D74040",
"O. c #D94242",
"+. c #DF4C4C",
"@. c #C75353",
"#. c #CC5454",
"$. c #C05B5B",
"%. c #CA5A5A",
"&. c #D65454",
"*. c #D45858",
"=. c #E04D4D",
"-. c #E55252",
";. c #E85454",
":. c #CE6261",
">. c #CA6D6C",
",. c #D66363",
"<. c #DB6161",
"1. c #D56969",
"2. c #DB6A6A",
"3. c #D2706F",
"4. c #CB7474",
"5. c #CE7878",
"6. c #D57373",
"7. c #D17C7C",
"8. c #D87C7C",
"9. c #E16A6A",
"0. c #E47271",
"q. c #EB7676",
"w. c #EB7A7A",
"e. c #F27E7D",
"r. c #1D831F",
"t. c #009C1C",
"y. c #01AD0F",
"u. c #00B507",
"i. c #00B904",
"p. c #03B30C",
"a. c #00A415",
"s. c #02AB11",
"d. c #0CB417",
"f. c #10B819",
"g. c #008B2A",
"h. c #029522",
"j. c #029A20",
"k. c #089927",
"l. c #0E992F",
"z. c #0B8E35",
"x. c #149836",
"c. c #13933A",
"v. c #1A993E",
"b. c #228526",
"n. c #27862B",
"m. c #2B8830",
"M. c #2F8239",
"N. c #308935",
"B. c #32843C",
"V. c #358A3D",
"C. c #388B3E",
"Z. c #0BA521",
"A. c #12AA25",
"S. c #12A62A",
"D. c #18AD2C",
"F. c #14B123",
"G. c #1BA435",
"H. c #22BD2A",
"J. c #27B437",
"K. c #398A41",
"L. c #3CB64E",
"P. c #3FAA5B",
"I. c #44B558",
"U. c #4DBE5C",
"Y. c #4AB162",
"T. c #4FBB61",
"R. c #56BF66",
"E. c #54B768",
"W. c #5CBE6E",
"Q. c #61B87A",
"!. c #44C44D",
"~. c #4EC359",
"^. c #54C262",
"/. c #58C563",
"(. c #5CC768",
"). c #62C66E",
"_. c #64C075",
"`. c #6BC776",
"'. c #64C871",
"]. c #6CC67B",
"[. c #73C87E",
"{. c #6CD470",
"}. c #79D77E",
"|. c #7CC68F",
" X c #7ED486",
".X c #7DD188",
"XX c #CD8080",
"oX c #D48484",
"OX c #DA8383",
"+X c #D48B8B",
"@X c #DA8C8B",
"#X c #D69393",
"$X c #DB9494",
"%X c #D79E9E",
"&X c #DC9D9D",
"*X c #E19393",
"=X c #E09F9E",
"-X c #DCA2A2",
";X c #DEA9A9",
":X c #E1A5A4",
">X c #E3ABAB",
",X c #E2B0AF",
"<X c #E6B2B2",
"1X c #81D986",
"2X c #81D38C",
"3X c #83D88A",
"4X c #86CA97",
"5X c #88CF96",
"6X c #8DCE9C",
"7X c #85D093",
"8X c #8CD09A",
"9X c #92DB98",
"0X c #9BD4A7",
"qX c #A0D7AB",
"wX c #A4DCAB",
"eX c #A9DFAE",
"rX c #ABDEB2",
"tX c #FEC9C9",
"yX c gray100",
"uX c None",
/* pixels */
"uXuXuXuXuXuXuXuXuXuXuXuXuXuXuXuXuXuXuXuXuXuXuXuXuXuXuXuXuXuXuXuX",
"uXuXuXuXuXuXuXuXuXuXuXuXuXuXuXuXuXuXuXuXuXuXuXuXuXuXuXuXuXuXuXuX",
"uXuX  X O + r r r r & & O . uXuXuXuX. X X X X X X . X . .   uXuX",
"uXuXX -.-.-.=.O.( ^ ~ Q G t uXuXuXuXi -.;.;.=.-.o.^ ! W v X uXuX",
"uXuXO -.*X8.8.8.OXOX@X@XJ u uXuXuXuXa ) OXOXOX@X@X@XOXoXf o uXuX",
"uXuX+ -.3.g h x c G J &XY b uXuXuXuXM ) OXg g H v x k oXf X uXuX",
"uXuXr =.6.g g x H K Y &XE b uXuXuXuXD / OXg g  .| G c +Xd X uXuX",
"uXuXt O.6.g g g x Y E -X[ m uXuXuXuXL ( OXg  .tXtX..G #Xk o uXuX",
"uXuXu ( 6.s s s f d E -X{ m uXuXuXuXI &.OXs #.tXtX:.J @Xz o uXuX",
"uXuXr ^ 6.s s f f d j &X} V uXuXuXuXA ,.@Xs k 6.6.E U #XS o uXuX",
"uXuXy ~ oXc k f d d d XX` Z uXuXuXuXI 1.=Xf s ' [ ` U #XF o uXuX",
"uXuXr K -X$X&X&X#XXX+XXXe r uXuXuXuXA 3.,XOX+X;X-X-X&X%XF @ uXuX",
"uXuXO G J Y ' [ { [ l p p + uXuXuXuXZ 5.>.f S $.{ ] ` U P @ uXuX",
"uXuX. t u b b m V V V $ + X uXuXuXuX@ B n o # = = * % % @   uXuX",
"uXuXuXuXuXuXuXuXuXuXuXuXuXuXuXuXuXuXuXuXuXuXuXuXuXuXuXuXuXuXuXuX",
"uXuXuXuXuXuXuXuXuXuXuXuXuXuXuXuXuXuXuXuXuXuXuXuXuXuXuXuXuXuXuXuX",
"uXuXuXuXuXuXuXuXuXuXuXuXuXuXuXuXuXuXuXuXuXuXuXuXuXuXuXuXuXuXuXuX",
"uXuXuXuXuXuXuXuXuXuXuXuXuXuXuXuXuXuXuXuXuXuXuXuXuXuXuXuXuXuXuXuX",
"uXuX; 6 6 5 r.b.n.m.N.V.C.8 uXuXuXuX@ _ _ _ I I U L C N y o uXuX",
"uXuX2 i.i.u.H.!.~./.).`.[.K.uXuXuXuXm e.w.q.q.9.<.*.X. .Y t uXuX",
"uXuX2 i.{.1X X9XwXeXrXwX].K.uXuXuXuXV e.<X<X<X>X:X:X&XoXJ r uXuX",
"uXuX2 p.}.p.y.y.J.~.^.rX_.B.uXuXuXuXV w.:X:.%.@...| E &XJ r uXuX",
"uXuX2 f. Xy.s.(.'.L.T.wXW.M.uXuXuXuXC w.=X%.@...| E T $XG $ uXuX",
"uXuX2 f.3XF.U.yXyX].I.qXE.w uXuXuXuXC 0.&X@...| E E Y $XS + uXuX",
"uXuX4 s.3XD.^.yXyXW.G.0XY.q uXuXuXuXC 2.$X..| E E Y F #Xz + uXuX",
"uXuX2 s..XA.D.R.T.j.h.6XP.0 uXuXuXuXN ,.$X| E E Y J S #Xj + uXuX",
"uXuX4 a..XZ.S.G.G.h.h.|.v.9 uXuXuXuXm #.@XE Y Y J S z +Xd O uXuX",
"uXuX4 a.).2X7X5X8X6X4XQ.g.7 uXuXuXuXb ~ :X7.7.5.5.>.4.#Xe O uXuX",
"uXuX3 a.t.t.j.k.l.x.v.c.z.7 uXuXuXuX# K Y ' R R R P F e e O uXuX",
"uXuX- 3 3 3 > > , < < 1 1 : uXuXuXuX  O O O O o o X o o o   uXuX",
"uXuXuXuXuXuXuXuXuXuXuXuXuXuXuXuXuXuXuXuXuXuXuXuXuXuXuXuXuXuXuXuX",
"uXuXuXuXuXuXuXuXuXuXuXuXuXuXuXuXuXuXuXuXuXuXuXuXuXuXuXuXuXuXuXuX"
};
